Coordinates
version=1
nRows=10
nColumns=34
inDegrees=yes

Units are S.I. units (second, meters, Newtons, ...)
If the header above contains a line with 'inDegrees', this indicates whether rotational values are in degrees (yes) or radians (no).

endheader
time	pelvis_tilt	pelvis_list	pelvis_rotation	pelvis_tx	pelvis_ty	pelvis_tz	hip_flexion_r	hip_adduction_r	hip_rotation_r	knee_angle_r	ankle_angle_r	subtalar_angle_r	mtp_angle_r	hip_flexion_l	hip_adduction_l	hip_rotation_l	knee_angle_l	ankle_angle_l	subtalar_angle_l	mtp_angle_l	lumbar_extension	lumbar_bending	lumbar_rotation	arm_flex_r	arm_add_r	arm_rot_r	elbow_flex_r	pro_sup_r	arm_flex_l	arm_add_l	arm_rot_l	elbow_flex_l	pro_sup_l
      6.01666670	      8.90488870	    -18.30391234	    -26.19788763	      3.12590551	      1.01728384	      1.39279327	     -5.36428104	     15.56181409	    -11.94175596	     20.16655223	     17.10237168	     12.26223130	      0.00000000	     -0.58924698	      4.74692876	     -0.24067288	     25.65459046	     12.71244993	      1.58448736	      0.00000000	    -11.98219119	      9.11657238	      5.59616763	     18.44912048	     17.10559417	     24.37005068	     20.20265895	    107.92104949	     19.02322602	     14.31453450	     25.30678774	     27.14547027	    108.48459920
      6.03333330	      9.20364408	    -18.38680834	    -26.32947181	      3.12713927	      1.01911710	      1.39269927	     -6.17102642	     15.51933453	    -11.46787833	     19.44573879	     16.71153197	     12.41467033	      0.00000000	     -1.42586524	      4.75287090	     -0.72038904	     25.21769841	     12.29283902	      3.08598730	      0.00000000	    -12.16255945	      9.45474903	      5.60075744	     17.91574317	     16.49548977	     25.16194215	     21.07440473	    108.28695224	     19.07493014	     14.65567552	     24.73953242	     26.06730816	    108.72328537
      6.05000000	      9.13294100	    -18.10557954	    -26.41420125	      3.12803641	      1.02023779	      1.39276638	     -6.29012265	     15.31549367	    -11.24461465	     18.92168904	     16.37947928	     12.49062171	      0.00000000	     -1.57615606	      4.99899121	     -0.82930022	     24.97175116	     11.37204871	      3.71171150	      0.00000000	    -11.72914849	      9.59709348	      5.20901813	     17.43347319	     16.27721199	     25.33811102	     21.25969759	    108.36330553	     18.87691482	     14.57315097	     24.63880689	     25.53398080	    108.75930872
      6.06666670	      9.86196397	    -18.11584265	    -26.65193446	      3.12900153	      1.02294231	      1.39368255	     -7.73550081	     15.14145185	    -10.13173854	     17.75671326	     15.74089018	     11.92635376	      0.00000000	     -3.09304888	      5.26116072	     -1.13984947	     23.95193199	     11.20755728	      5.49449030	      0.00000000	    -12.21313168	      9.51579478	      5.18906703	     16.94694288	     15.81689918	     26.96591857	     21.95028938	    109.02180978	     18.90828525	     14.56851153	     24.03215532	     24.47156699	    109.13916174
      6.08333330	      9.73284638	    -17.91053614	    -26.93354710	      3.12891900	      1.02361283	      1.39367502	     -7.64005509	     14.97113613	     -9.76073852	     17.56293492	     15.56153220	     12.09521669	      0.00000000	     -3.31187041	      5.51165908	     -0.43579997	     23.46467084	     11.12638369	      6.21790962	      0.00000000	    -11.96004495	      9.71586458	      5.04466122	     16.64314410	     15.46326780	     27.08797057	     22.25145684	    109.07020778	     18.98500601	     14.50961620	     23.90689721	     24.02080975	    109.15055498
      6.10000000	      9.71609613	    -17.71084645	    -27.12395306	      3.12942963	      1.02433655	      1.39350650	     -7.74785204	     14.74865134	     -9.53722240	     17.23347317	     15.43505410	     12.16670197	      0.00000000	     -3.76968126	      5.81682324	      0.19566690	     22.79270975	     11.11139520	      6.98495047	      0.00000000	    -11.68086388	      9.87329025	      4.97408024	     16.15445919	     14.93197879	     27.36895287	     22.90268393	    109.15211145	     19.10017519	     14.63584974	     23.68998087	     23.30324625	    109.14046881
      6.11666670	     10.57306356	    -17.77205419	    -27.25766080	      3.12986661	      1.02656438	      1.39411087	     -9.16168733	     14.44695411	     -8.99930545	     16.34014786	     15.16161191	     12.18855282	      0.00000000	     -5.47381030	      6.25510057	      0.59246668	     21.58587190	     10.81356220	      7.71227334	      0.00000000	    -12.41351344	      9.64831463	      5.04118458	     15.82255330	     14.37536042	     28.61730983	     23.92614550	    109.40988549	     19.38095333	     14.70669506	     22.84926109	     22.52487578	    109.16272077
      6.13333330	     10.44573540	    -17.50071869	    -27.44379007	      3.12987486	      1.02688330	      1.39402041	     -9.02046275	     14.23988599	     -8.71498869	     16.13952365	     15.05715186	     12.20930636	      0.00000000	     -5.86849949	      6.56735334	      1.28445236	     20.62531895	     10.95110771	      8.33526867	      0.00000000	    -12.15258754	      9.71119419	      4.81078596	     15.57658070	     13.98739623	     28.83386047	     24.51063183	    109.44505999	     19.53849372	     14.59375120	     22.61401075	     22.15932314	    109.13845035
      6.15000000	     11.01426468	    -17.42990661	    -27.53961760	      3.13062074	      1.02837964	      1.39436974	     -9.92861523	     13.93677094	     -8.20744483	     15.54487791	     14.89133419	     12.01943068	      0.00000000	     -7.58330069	      7.06908027	      1.91800077	     18.60379044	     10.49269290	      8.53890630	      0.00000000	    -12.63858370	      9.52928818	      4.78879246	     15.39813049	     13.32540149	     30.04083741	     25.47969977	    109.55190699	     19.73775604	     14.67424477	     21.52427824	     21.83492165	    108.97962138
      6.16666670	     10.88745052	    -17.20463899	    -27.65715699	      3.13222045	      1.02848284	      1.39515006	     -9.84709798	     13.77465439	     -8.05110269	     15.49997426	     14.92966385	     11.90761779	      0.00000000	     -8.23673644	      7.28388479	      2.33725974	     17.37500630	     10.53182805	      9.00528174	      0.00000000	    -12.18325568	      9.64579193	      4.50834887	     14.86678521	     12.86525971	     30.36513615	     26.26544924	    109.58222831	     19.59119776	     14.59771378	     21.24939624	     21.56142696	    108.92044429
